g mesh_148_Terrain -302438
v 2.273527 -1.19995 0.3591645
v 2.250055 -2.622604E-05 -2.622604E-05
v 2.250055 -1.19995 -2.622604E-05
v 2.273527 -2.622604E-05 0.3591645
v 2.343692 -1.19995 0.7118628
v 2.343692 -2.622604E-05 0.7118628
v 2.459427 -1.19995 1.052576
v 2.459427 -2.622604E-05 1.052576
v 2.618484 -1.19995 1.375185
v 2.618484 -2.622604E-05 1.375185
v 2.818368 -1.19995 1.674199
v 2.818368 -2.622604E-05 1.674199
v 3.055456 -1.19995 1.944497
v 3.055456 -2.622604E-05 1.944497
v -2.187953 -2.622604E-05 0.9468288
v -2.250003 -1.19995 -2.622604E-05
v -2.250003 -2.622604E-05 -2.622604E-05
v -2.187953 -1.19995 0.9468288
v -2.002926 -2.622604E-05 1.876704
v -2.002926 -1.19995 1.876704
v -1.69792 -2.622604E-05 2.775117
v -1.69792 -1.19995 2.775117
v -1.278428 -2.622604E-05 3.62534
v -1.278428 -1.19995 3.62534
v -0.7516897 -2.622604E-05 4.413761
v -0.7516897 -1.19995 4.413761
v -0.1265707 -2.622604E-05 5.126524
v -0.1265707 -1.19995 5.126524
v 2.273527 -2.622604E-05 0.3591645
v 1.850039 -2.622604E-05 -2.622604E-05
v 2.250055 -2.622604E-05 -2.622604E-05
v 1.877006 -2.622604E-05 0.4113512
v 2.343692 -2.622604E-05 0.7118628
v 1.957409 -2.622604E-05 0.8153627
v 2.459427 -2.622604E-05 1.052576
v 2.089874 -2.622604E-05 1.205766
v 2.618484 -2.622604E-05 1.375185
v 2.272153 -2.622604E-05 1.575194
v 2.818368 -2.622604E-05 1.674199
v 2.501002 -2.622604E-05 1.917655
v 3.055456 -2.622604E-05 1.944497
v 2.772673 -2.622604E-05 2.227405
v -1.791307 -2.622604E-05 0.8945169
v -2.250003 -2.622604E-05 -2.622604E-05
v -1.849987 -2.622604E-05 -2.622604E-05
v -2.187953 -2.622604E-05 0.9468288
v -1.616519 -2.622604E-05 1.773079
v -2.002926 -2.622604E-05 1.876704
v -1.328367 -2.622604E-05 2.621928
v -1.69792 -2.622604E-05 2.775117
v -0.9320965 -2.622604E-05 3.425331
v -1.278428 -2.622604E-05 3.62534
v -0.4343235 -2.622604E-05 4.17018
v -0.7516897 -2.622604E-05 4.413761
v 0.1563373 -2.622604E-05 4.843741
v -0.1265707 -2.622604E-05 5.126524
v 1.877006 -2.622604E-05 0.4113512
v -1.849987 -2.622604E-05 -2.622604E-05
v 1.850039 -2.622604E-05 -2.622604E-05
v -1.791307 -2.622604E-05 0.8945169
v 1.957409 -2.622604E-05 0.8153627
v -1.616519 -2.622604E-05 1.773079
v 2.089874 -2.622604E-05 1.205766
v -1.328367 -2.622604E-05 2.621928
v 2.272153 -2.622604E-05 1.575194
v -0.9320965 -2.622604E-05 3.425331
v 2.501002 -2.622604E-05 1.917655
v -0.4343235 -2.622604E-05 4.17018
v 2.772673 -2.622604E-05 2.227405
v 0.1563373 -2.622604E-05 4.843741
v -2.187953 -1.19995 0.9468288
v 2.250055 -1.19995 -2.622604E-05
v -2.250003 -1.19995 -2.622604E-05
v 2.273527 -1.19995 0.3591645
v -2.002926 -1.19995 1.876704
v 2.343692 -1.19995 0.7118628
v -1.69792 -1.19995 2.775117
v 2.459427 -1.19995 1.052576
v -1.278428 -1.19995 3.62534
v 2.618484 -1.19995 1.375185
v -0.7516897 -1.19995 4.413761
v 2.818368 -1.19995 1.674199
v -0.1265707 -1.19995 5.126524
v 3.055456 -1.19995 1.944497
vt 0.005205654 7.139978
vt 0.9946667 6.600108
vt 0.005205654 6.600108
vt 0.9946667 7.139978
vt 0.005205654 7.679848
vt 0.9946667 7.679848
vt 0.005205654 8.220621
vt 0.9946667 8.220621
vt 0.005205654 8.760491
vt 0.9946667 8.760491
vt 0.005205654 9.300362
vt 0.9946667 9.300362
vt 0.005205654 9.839329
vt 0.9946667 9.839329
vt 0.9946667 7.139978
vt 0.005205654 6.600108
vt 0.9946667 6.600108
vt 0.005205654 7.139978
vt 0.9946667 7.679848
vt 0.005205654 7.679848
vt 0.9946667 8.220621
vt 0.005205654 8.220621
vt 0.9946667 8.760491
vt 0.005205654 8.760491
vt 0.9946667 9.300362
vt 0.005205654 9.300362
vt 0.9946667 9.839329
vt 0.005205654 9.839329
vt 0.005205654 21.42036
vt 0.9946667 19.79984
vt 0.005205654 19.79984
vt 0.9946667 21.42036
vt 0.005205654 23.03997
vt 0.9946667 23.03997
vt 0.005205654 24.66048
vt 0.9946667 24.66048
vt 0.005205654 26.28009
vt 0.9946667 26.28009
vt 0.005205654 27.8997
vt 0.9946667 27.8997
vt 0.005205654 29.51931
vt 0.9946667 29.51931
vt 0.9946667 21.42036
vt 0.005205654 19.79984
vt 0.9946667 19.79984
vt 0.005205654 21.42036
vt 0.9946667 23.03997
vt 0.005205654 23.03997
vt 0.9946667 24.66048
vt 0.005205654 24.66048
vt 0.9946667 26.28009
vt 0.005205654 26.28009
vt 0.9946667 27.8997
vt 0.005205654 27.8997
vt 0.9946667 29.51931
vt 0.005205654 29.51931
vt 0.0377062 2.163784
vt 0.9621662 2.000378
vt 0.0377062 2.000378
vt 0.9621662 2.163784
vt 0.0377062 2.327189
vt 0.9621662 2.327189
vt 0.0377062 2.490595
vt 0.9621662 2.490595
vt 0.0377062 2.654903
vt 0.9621662 2.654903
vt 0.0377062 2.818308
vt 0.9621662 2.818308
vt 0.0377062 2.981714
vt 0.9621662 2.981714
vt -0.06250381 2.163784
vt 1.062376 2.000378
vt -0.06250381 2.000378
vt 1.062376 2.163784
vt -0.06250381 2.327189
vt 1.062376 2.327189
vt -0.06250381 2.490595
vt 1.062376 2.490595
vt -0.06250381 2.654903
vt 1.062376 2.654903
vt -0.06250381 2.818308
vt 1.062376 2.818308
vt -0.06250381 2.981714
vt 1.062376 2.981714
vn 0.9921493 0.003921509 -0.1249976
vn 0.9999924 0.003921509 0
vn 0.9999924 0.003921509 0
vn 0.9921493 0.003921509 -0.1249976
vn 0.9686201 0.003921509 -0.2485151
vn 0.9686201 0.003921509 -0.2485151
vn 0.9215616 0.003921509 -0.3882124
vn 0.9215616 0.003921509 -0.3882124
vn 0.8666601 0.003921509 -0.4988837
vn 0.8666601 0.003921509 -0.4988837
vn 0.7960724 0.003921509 -0.6051888
vn 0.7960724 0.003921509 -0.6051888
vn 0.7097985 0.003921509 -0.7043939
vn 0.7097985 0.003921509 -0.7043939
vn -0.9921492 0.003921509 0.1249981
vn -0.9999923 0.003921509 -0.0003449296
vn -0.9999923 0.003921509 -0.0003449296
vn -0.9921492 0.003921509 0.1249981
vn -0.9686199 0.003921509 0.2485156
vn -0.9686199 0.003921509 0.2485156
vn -0.9215615 0.003921509 0.3882126
vn -0.9215615 0.003921509 0.3882126
vn -0.86666 0.003921509 0.4988838
vn -0.86666 0.003921509 0.4988838
vn -0.7960722 0.003921509 0.6051889
vn -0.7960722 0.003921509 0.6051889
vn -0.7097985 0.003921509 0.7043939
vn -0.7097985 0.003921509 0.7043939
vn -0.003921509 0.9999923 -0.000345267
vn -0.003921509 0.9999923 -0.000345267
vn -0.003921509 0.9999923 -0.000345267
vn -0.003921509 0.9999923 -0.000345267
vn -0.003921509 0.9999923 -0.000345267
vn -0.003921509 0.9999923 -0.000345267
vn -0.003921509 0.9999923 -0.000345267
vn -0.003921509 0.9999923 -0.000345267
vn -0.003921509 0.9999923 -0.000345267
vn -0.003921509 0.9999923 -0.000345267
vn -0.003921509 0.9999923 -0.000345267
vn -0.003921509 0.9999923 -0.000345267
vn -0.003921509 0.9999923 -0.000345267
vn -0.003921509 0.9999923 -0.000345267
vn -0.003921509 0.9999923 -0.000345267
vn -0.003921509 0.9999923 -0.000345267
vn -0.003921509 0.9999923 -0.000345267
vn -0.003921509 0.9999923 -0.000345267
vn -0.003921509 0.9999923 -0.000345267
vn -0.003921509 0.9999923 -0.000345267
vn -0.003921509 0.9999923 -0.000345267
vn -0.003921509 0.9999923 -0.000345267
vn -0.003921509 0.9999923 -0.000345267
vn -0.003921509 0.9999923 -0.000345267
vn -0.003921509 0.9999923 -0.000345267
vn -0.003921509 0.9999923 -0.000345267
vn -0.003921509 0.9999923 -0.000345267
vn -0.003921509 0.9999923 -0.000345267
vn -0.003921509 0.9999923 -0.000345267
vn -0.003921509 0.9999923 -0.000345267
vn -0.003921509 0.9999923 -0.000345267
vn -0.003921509 0.9999923 -0.000345267
vn -0.003921509 0.9999923 -0.000345267
vn -0.003921509 0.9999923 -0.000345267
vn -0.003921509 0.9999923 -0.000345267
vn -0.003921509 0.9999923 -0.000345267
vn -0.003921509 0.9999923 -0.000345267
vn -0.003921509 0.9999923 -0.000345267
vn -0.003921509 0.9999923 -0.000345267
vn -0.003921509 0.9999923 -0.000345267
vn -0.003921509 0.9999923 -0.000345267
vn -0.003921509 0.9999923 -0.000345267
vn -0.003921509 -0.9999924 0
vn -0.003921509 -0.9999924 0
vn -0.003921509 -0.9999924 0
vn -0.003921509 -0.9999924 0
vn -0.003921509 -0.9999924 0
vn -0.003921509 -0.9999924 0
vn -0.003921509 -0.9999924 0
vn -0.003921509 -0.9999924 0
vn -0.003921509 -0.9999924 0
vn -0.003921509 -0.9999924 0
vn -0.003921509 -0.9999924 0
vn -0.003921509 -0.9999924 0
vn -0.003921509 -0.9999924 0
vn -0.003921509 -0.9999924 0
g mesh_148_Terrain -302438_0
f 3/3/3 2/2/2 1/1/1
f 2/2/2 4/4/4 1/1/1
f 1/1/1 4/4/4 5/5/5
f 4/4/4 6/6/6 5/5/5
f 5/5/5 6/6/6 7/7/7
f 6/6/6 8/8/8 7/7/7
f 7/7/7 8/8/8 9/9/9
f 8/8/8 10/10/10 9/9/9
f 9/9/9 10/10/10 11/11/11
f 10/10/10 12/12/12 11/11/11
f 11/11/11 12/12/12 13/13/13
f 12/12/12 14/14/14 13/13/13
f 17/17/17 16/16/16 15/15/15
f 16/16/16 18/18/18 15/15/15
f 15/15/15 18/18/18 19/19/19
f 18/18/18 20/20/20 19/19/19
f 19/19/19 20/20/20 21/21/21
f 20/20/20 22/22/22 21/21/21
f 21/21/21 22/22/22 23/23/23
f 22/22/22 24/24/24 23/23/23
f 23/23/23 24/24/24 25/25/25
f 24/24/24 26/26/26 25/25/25
f 25/25/25 26/26/26 27/27/27
f 26/26/26 28/28/28 27/27/27
g mesh_148_Terrain -302438_1
f 31/31/31 30/30/30 29/29/29
f 30/30/30 32/32/32 29/29/29
f 29/29/29 32/32/32 33/33/33
f 32/32/32 34/34/34 33/33/33
f 33/33/33 34/34/34 35/35/35
f 34/34/34 36/36/36 35/35/35
f 35/35/35 36/36/36 37/37/37
f 36/36/36 38/38/38 37/37/37
f 37/37/37 38/38/38 39/39/39
f 38/38/38 40/40/40 39/39/39
f 39/39/39 40/40/40 41/41/41
f 40/40/40 42/42/42 41/41/41
f 45/45/45 44/44/44 43/43/43
f 44/44/44 46/46/46 43/43/43
f 43/43/43 46/46/46 47/47/47
f 46/46/46 48/48/48 47/47/47
f 47/47/47 48/48/48 49/49/49
f 48/48/48 50/50/50 49/49/49
f 49/49/49 50/50/50 51/51/51
f 50/50/50 52/52/52 51/51/51
f 51/51/51 52/52/52 53/53/53
f 52/52/52 54/54/54 53/53/53
f 53/53/53 54/54/54 55/55/55
f 54/54/54 56/56/56 55/55/55
g mesh_148_Terrain -302438_2
f 59/59/59 58/58/58 57/57/57
f 58/58/58 60/60/60 57/57/57
f 57/57/57 60/60/60 61/61/61
f 60/60/60 62/62/62 61/61/61
f 61/61/61 62/62/62 63/63/63
f 62/62/62 64/64/64 63/63/63
f 63/63/63 64/64/64 65/65/65
f 64/64/64 66/66/66 65/65/65
f 65/65/65 66/66/66 67/67/67
f 66/66/66 68/68/68 67/67/67
f 67/67/67 68/68/68 69/69/69
f 68/68/68 70/70/70 69/69/69
g mesh_148_Terrain -302438_3
f 73/73/73 72/72/72 71/71/71
f 72/72/72 74/74/74 71/71/71
f 71/71/71 74/74/74 75/75/75
f 74/74/74 76/76/76 75/75/75
f 75/75/75 76/76/76 77/77/77
f 76/76/76 78/78/78 77/77/77
f 77/77/77 78/78/78 79/79/79
f 78/78/78 80/80/80 79/79/79
f 79/79/79 80/80/80 81/81/81
f 80/80/80 82/82/82 81/81/81
f 81/81/81 82/82/82 83/83/83
f 82/82/82 84/84/84 83/83/83
