g mesh_52_Terrain -224898
v 1.562463 -1.2 0.4999771
v 1.500023 0 0
v 1.500023 -1.2 0
v 1.562463 0 0.4999771
v 1.749966 -1.2 1.000046
v 1.749966 0 1.000046
v 1.937469 -1.2 1.500023
v 1.937469 0 1.500023
v 2 -1.2 2
v 2 0 2
v 1.937469 -1.2 2.499977
v 1.937469 0 2.499977
v 1.749966 -1.2 3.000046
v 1.749966 0 3.000046
v 1.562463 -1.2 3.500023
v 1.562463 0 3.500023
v 1.500023 -1.2 4
v 1.500023 0 4
v -1.562463 0 0.4999771
v -1.500023 -1.2 0
v -1.500023 0 0
v -1.562463 -1.2 0.4999771
v -1.749966 0 1.000046
v -1.749966 -1.2 1.000046
v -1.937469 0 1.500023
v -1.937469 -1.2 1.500023
v -2 0 2
v -2 -1.2 2
v -1.937469 0 2.499977
v -1.937469 -1.2 2.499977
v -1.749966 0 3.000046
v -1.749966 -1.2 3.000046
v -1.562463 0 3.500023
v -1.562463 -1.2 3.500023
v -1.500023 0 4
v -1.500023 -1.2 4
v 1.562463 0 0.4999771
v 1.100023 0 0
v 1.500023 0 0
v 1.162463 0 0.4999771
v 1.749966 0 1.000046
v 1.349966 0 1.000046
v 1.937469 0 1.500023
v 1.537469 0 1.500023
v 2 0 2
v 1.6 0 2
v 1.937469 0 2.499977
v 1.537469 0 2.499977
v 1.749966 0 3.000046
v 1.349966 0 3.000046
v 1.562463 0 3.500023
v 1.162463 0 3.500023
v 1.500023 0 4
v 1.100023 0 4
v -1.162463 0 0.4999771
v -1.500023 0 0
v -1.100023 0 0
v -1.562463 0 0.4999771
v -1.349966 0 1.000046
v -1.749966 0 1.000046
v -1.537468 0 1.500023
v -1.937469 0 1.500023
v -1.6 0 2
v -2 0 2
v -1.537468 0 2.499977
v -1.937469 0 2.499977
v -1.349966 0 3.000046
v -1.749966 0 3.000046
v -1.162463 0 3.500023
v -1.562463 0 3.500023
v -1.100023 0 4
v -1.500023 0 4
v 1.162463 0 0.4999771
v -1.100023 0 0
v 1.100023 0 0
v -1.162463 0 0.4999771
v 1.349966 0 1.000046
v -1.349966 0 1.000046
v 1.537469 0 1.500023
v -1.537468 0 1.500023
v 1.6 0 2
v -1.6 0 2
v 1.537469 0 2.499977
v -1.537468 0 2.499977
v 1.349966 0 3.000046
v -1.349966 0 3.000046
v 1.162463 0 3.500023
v -1.162463 0 3.500023
v 1.100023 0 4
v -1.100023 0 4
v -1.562463 -1.2 0.4999771
v 1.500023 -1.2 0
v -1.500023 -1.2 0
v 1.562463 -1.2 0.4999771
v -1.749966 -1.2 1.000046
v 1.749966 -1.2 1.000046
v -1.937469 -1.2 1.500023
v 1.937469 -1.2 1.500023
v -2 -1.2 2
v 2 -1.2 2
v -1.937469 -1.2 2.499977
v 1.937469 -1.2 2.499977
v -1.749966 -1.2 3.000046
v 1.749966 -1.2 3.000046
v -1.562463 -1.2 3.500023
v 1.562463 -1.2 3.500023
v -1.500023 -1.2 4
v 1.500023 -1.2 4
vt 0.004834058 10.31225
vt 0.9952116 9.90015
vt 0.004834058 9.90015
vt 0.9952116 10.31225
vt 0.004834058 10.72496
vt 0.9952116 10.72496
vt 0.004834058 11.13767
vt 0.9952116 11.13767
vt 0.004834058 11.54977
vt 0.9952116 11.54977
vt 0.004834058 11.96248
vt 0.9952116 11.96248
vt 0.004834058 12.37519
vt 0.9952116 12.37519
vt 0.004834058 12.78729
vt 0.9952116 12.78729
vt 0.004834058 13.2
vt 0.9952116 13.2
vt 0.9952116 10.31225
vt 0.004834058 9.90015
vt 0.9952116 9.90015
vt 0.004834058 10.31225
vt 0.9952116 10.72496
vt 0.004834058 10.72496
vt 0.9952116 11.13767
vt 0.004834058 11.13767
vt 0.9952116 11.54977
vt 0.004834058 11.54977
vt 0.9952116 11.96248
vt 0.004834058 11.96248
vt 0.9952116 12.37519
vt 0.004834058 12.37519
vt 0.9952116 12.78729
vt 0.004834058 12.78729
vt 0.9952116 13.2
vt 0.004834058 13.2
vt 0.004834058 30.93736
vt 0.9952116 29.69985
vt 0.004834058 29.69985
vt 0.9952116 30.93736
vt 0.004834058 32.17488
vt 0.9952116 32.17488
vt 0.004834058 33.4124
vt 0.9952116 33.4124
vt 0.004834058 34.64992
vt 0.9952116 34.64992
vt 0.004834058 35.88744
vt 0.9952116 35.88744
vt 0.004834058 37.12496
vt 0.9952116 37.12496
vt 0.004834058 38.36248
vt 0.9952116 38.36248
vt 0.004834058 39.59999
vt 0.9952116 39.59999
vt 0.9952116 30.93736
vt 0.004834058 29.69985
vt 0.9952116 29.69985
vt 0.004834058 30.93736
vt 0.9952116 32.17488
vt 0.004834058 32.17488
vt 0.9952116 33.4124
vt 0.004834058 33.4124
vt 0.9952116 34.64992
vt 0.004834058 34.64992
vt 0.9952116 35.88744
vt 0.004834058 35.88744
vt 0.9952116 37.12496
vt 0.004834058 37.12496
vt 0.9952116 38.36248
vt 0.004834058 38.36248
vt 0.9952116 39.59999
vt 0.004834058 39.59999
vt 0.209073 3.125218
vt 0.775262 3.000137
vt 0.2247837 3.000137
vt 0.7903684 3.125218
vt 0.1625452 3.250299
vt 0.8375005 3.250299
vt 0.1154131 3.374776
vt 0.8846325 3.374776
vt 0.09970244 3.499858
vt 0.899739 3.499858
vt 0.1154131 3.624939
vt 0.8846325 3.624939
vt 0.1625452 3.75002
vt 0.8375005 3.75002
vt 0.209073 3.875101
vt 0.7903684 3.875101
vt 0.2247837 4.000183
vt 0.775262 4.000183
vt 0.1093706 3.125218
vt 0.8749644 3.000137
vt 0.1250812 3.000137
vt 0.8906751 3.125218
vt 0.06223849 3.250299
vt 0.9372029 3.250299
vt 0.01571069 3.374776
vt 0.9843349 3.374776
vt 0 3.499858
vt 1.000046 3.499858
vt 0.01571069 3.624939
vt 0.9843349 3.624939
vt 0.06223849 3.75002
vt 0.9372029 3.75002
vt 0.1093706 3.875101
vt 0.8906751 3.875101
vt 0.1250812 4.000183
vt 0.8749644 4.000183
vn 0.9999924 0.003921509 0
vn 0.9999924 0.003921509 0
vn 0.9999924 0.003921509 0
vn 0.9999924 0.003921509 0
vn 0.9999924 0.003921509 0
vn 0.9999924 0.003921509 0
vn 0.9999924 0.003921509 0
vn 0.9999924 0.003921509 0
vn 0.9999924 0.003921509 0
vn 0.9999924 0.003921509 0
vn 0.9999924 0.003921509 0
vn 0.9999924 0.003921509 0
vn 0.9999924 0.003921509 0
vn 0.9999924 0.003921509 0
vn 0.9999924 0.003921509 0
vn 0.9999924 0.003921509 0
vn 0.9999924 0.003921509 0
vn 0.9999924 0.003921509 0
vn -0.9999923 0.003921509 -0.0003449296
vn -0.9999923 0.003921509 -0.0003449296
vn -0.9999923 0.003921509 -0.0003449296
vn -0.9999923 0.003921509 -0.0003449296
vn -0.9999923 0.003921509 -0.0003449296
vn -0.9999923 0.003921509 -0.0003449296
vn -0.9999923 0.003921509 -0.0003449296
vn -0.9999923 0.003921509 -0.0003449296
vn -0.9999923 0.003921509 -0.0003449296
vn -0.9999923 0.003921509 -0.0003449296
vn -0.9999923 0.003921509 -0.0003449296
vn -0.9999923 0.003921509 -0.0003449296
vn -0.9999923 0.003921509 -0.0003449296
vn -0.9999923 0.003921509 -0.0003449296
vn -0.9999923 0.003921509 -0.0003449296
vn -0.9999923 0.003921509 -0.0003449296
vn -0.9999923 0.003921509 -0.0003449296
vn -0.9999923 0.003921509 -0.0003449296
vn -0.003921509 0.9999923 -0.000345267
vn -0.003921509 0.9999923 -0.000345267
vn -0.003921509 0.9999923 -0.000345267
vn -0.003921509 0.9999923 -0.000345267
vn -0.003921509 0.9999923 -0.000345267
vn -0.003921509 0.9999923 -0.000345267
vn -0.003921509 0.9999923 -0.000345267
vn -0.003921509 0.9999923 -0.000345267
vn -0.003921509 0.9999923 -0.000345267
vn -0.003921509 0.9999923 -0.000345267
vn -0.003921509 0.9999923 -0.000345267
vn -0.003921509 0.9999923 -0.000345267
vn -0.003921509 0.9999923 -0.000345267
vn -0.003921509 0.9999923 -0.000345267
vn -0.003921509 0.9999923 -0.000345267
vn -0.003921509 0.9999923 -0.000345267
vn -0.003921509 0.9999923 -0.000345267
vn -0.003921509 0.9999923 -0.000345267
vn -0.003921509 0.9999923 -0.000345267
vn -0.003921509 0.9999923 -0.000345267
vn -0.003921509 0.9999923 -0.000345267
vn -0.003921509 0.9999923 -0.000345267
vn -0.003921509 0.9999923 -0.000345267
vn -0.003921509 0.9999923 -0.000345267
vn -0.003921509 0.9999923 -0.000345267
vn -0.003921509 0.9999923 -0.000345267
vn -0.003921509 0.9999923 -0.000345267
vn -0.003921509 0.9999923 -0.000345267
vn -0.003921509 0.9999923 -0.000345267
vn -0.003921509 0.9999923 -0.000345267
vn -0.003921509 0.9999923 -0.000345267
vn -0.003921509 0.9999923 -0.000345267
vn -0.003921509 0.9999923 -0.000345267
vn -0.003921509 0.9999923 -0.000345267
vn -0.003921509 0.9999923 -0.000345267
vn -0.003921509 0.9999923 -0.000345267
vn -0.003921509 0.9999923 -0.000345267
vn -0.003921509 0.9999923 -0.000345267
vn -0.003921509 0.9999923 -0.000345267
vn -0.003921509 0.9999923 -0.000345267
vn -0.003921509 0.9999923 -0.000345267
vn -0.003921509 0.9999923 -0.000345267
vn -0.003921509 0.9999923 -0.000345267
vn -0.003921509 0.9999923 -0.000345267
vn -0.003921509 0.9999923 -0.000345267
vn -0.003921509 0.9999923 -0.000345267
vn -0.003921509 0.9999923 -0.000345267
vn -0.003921509 0.9999923 -0.000345267
vn -0.003921509 0.9999923 -0.000345267
vn -0.003921509 0.9999923 -0.000345267
vn -0.003921509 0.9999923 -0.000345267
vn -0.003921509 0.9999923 -0.000345267
vn -0.003921509 0.9999923 -0.000345267
vn -0.003921509 0.9999923 -0.000345267
vn -0.003921509 -0.9999924 0
vn -0.003921509 -0.9999924 0
vn -0.003921509 -0.9999924 0
vn -0.003921509 -0.9999924 0
vn -0.003921509 -0.9999924 0
vn -0.003921509 -0.9999924 0
vn -0.003921509 -0.9999924 0
vn -0.003921509 -0.9999924 0
vn -0.003921509 -0.9999924 0
vn -0.003921509 -0.9999924 0
vn -0.003921509 -0.9999924 0
vn -0.003921509 -0.9999924 0
vn -0.003921509 -0.9999924 0
vn -0.003921509 -0.9999924 0
vn -0.003921509 -0.9999924 0
vn -0.003921509 -0.9999924 0
vn -0.003921509 -0.9999924 0
vn -0.003921509 -0.9999924 0
g mesh_52_Terrain -224898_0
f 3/3/3 2/2/2 1/1/1
f 2/2/2 4/4/4 1/1/1
f 1/1/1 4/4/4 5/5/5
f 4/4/4 6/6/6 5/5/5
f 5/5/5 6/6/6 7/7/7
f 6/6/6 8/8/8 7/7/7
f 7/7/7 8/8/8 9/9/9
f 8/8/8 10/10/10 9/9/9
f 9/9/9 10/10/10 11/11/11
f 10/10/10 12/12/12 11/11/11
f 11/11/11 12/12/12 13/13/13
f 12/12/12 14/14/14 13/13/13
f 13/13/13 14/14/14 15/15/15
f 14/14/14 16/16/16 15/15/15
f 15/15/15 16/16/16 17/17/17
f 16/16/16 18/18/18 17/17/17
f 21/21/21 20/20/20 19/19/19
f 20/20/20 22/22/22 19/19/19
f 19/19/19 22/22/22 23/23/23
f 22/22/22 24/24/24 23/23/23
f 23/23/23 24/24/24 25/25/25
f 24/24/24 26/26/26 25/25/25
f 25/25/25 26/26/26 27/27/27
f 26/26/26 28/28/28 27/27/27
f 27/27/27 28/28/28 29/29/29
f 28/28/28 30/30/30 29/29/29
f 29/29/29 30/30/30 31/31/31
f 30/30/30 32/32/32 31/31/31
f 31/31/31 32/32/32 33/33/33
f 32/32/32 34/34/34 33/33/33
f 33/33/33 34/34/34 35/35/35
f 34/34/34 36/36/36 35/35/35
g mesh_52_Terrain -224898_1
f 39/39/39 38/38/38 37/37/37
f 38/38/38 40/40/40 37/37/37
f 37/37/37 40/40/40 41/41/41
f 40/40/40 42/42/42 41/41/41
f 41/41/41 42/42/42 43/43/43
f 42/42/42 44/44/44 43/43/43
f 43/43/43 44/44/44 45/45/45
f 44/44/44 46/46/46 45/45/45
f 45/45/45 46/46/46 47/47/47
f 46/46/46 48/48/48 47/47/47
f 47/47/47 48/48/48 49/49/49
f 48/48/48 50/50/50 49/49/49
f 49/49/49 50/50/50 51/51/51
f 50/50/50 52/52/52 51/51/51
f 51/51/51 52/52/52 53/53/53
f 52/52/52 54/54/54 53/53/53
f 57/57/57 56/56/56 55/55/55
f 56/56/56 58/58/58 55/55/55
f 55/55/55 58/58/58 59/59/59
f 58/58/58 60/60/60 59/59/59
f 59/59/59 60/60/60 61/61/61
f 60/60/60 62/62/62 61/61/61
f 61/61/61 62/62/62 63/63/63
f 62/62/62 64/64/64 63/63/63
f 63/63/63 64/64/64 65/65/65
f 64/64/64 66/66/66 65/65/65
f 65/65/65 66/66/66 67/67/67
f 66/66/66 68/68/68 67/67/67
f 67/67/67 68/68/68 69/69/69
f 68/68/68 70/70/70 69/69/69
f 69/69/69 70/70/70 71/71/71
f 70/70/70 72/72/72 71/71/71
g mesh_52_Terrain -224898_2
f 75/75/75 74/74/74 73/73/73
f 74/74/74 76/76/76 73/73/73
f 73/73/73 76/76/76 77/77/77
f 76/76/76 78/78/78 77/77/77
f 77/77/77 78/78/78 79/79/79
f 78/78/78 80/80/80 79/79/79
f 79/79/79 80/80/80 81/81/81
f 80/80/80 82/82/82 81/81/81
f 81/81/81 82/82/82 83/83/83
f 82/82/82 84/84/84 83/83/83
f 83/83/83 84/84/84 85/85/85
f 84/84/84 86/86/86 85/85/85
f 85/85/85 86/86/86 87/87/87
f 86/86/86 88/88/88 87/87/87
f 87/87/87 88/88/88 89/89/89
f 88/88/88 90/90/90 89/89/89
g mesh_52_Terrain -224898_3
f 93/93/93 92/92/92 91/91/91
f 92/92/92 94/94/94 91/91/91
f 91/91/91 94/94/94 95/95/95
f 94/94/94 96/96/96 95/95/95
f 95/95/95 96/96/96 97/97/97
f 96/96/96 98/98/98 97/97/97
f 97/97/97 98/98/98 99/99/99
f 98/98/98 100/100/100 99/99/99
f 99/99/99 100/100/100 101/101/101
f 100/100/100 102/102/102 101/101/101
f 101/101/101 102/102/102 103/103/103
f 102/102/102 104/104/104 103/103/103
f 103/103/103 104/104/104 105/105/105
f 104/104/104 106/106/106 105/105/105
f 105/105/105 106/106/106 107/107/107
f 106/106/106 108/108/108 107/107/107
