g mesh_46_Terrain -31060
v 1.330018 -1.200031 1.000359
v 1.250034 -4.959106E-05 -4.959106E-05
v 1.250034 -1.200031 -4.959106E-05
v 1.330018 -4.959106E-05 1.000359
v 1.570081 -1.200031 2.000103
v 1.570081 -4.959106E-05 2.000103
v 1.930175 -1.200031 3.000511
v 1.930175 -4.959106E-05 3.000511
v 2.170016 -1.200031 4.000256
v 2.170016 -4.959106E-05 4.000256
v 2.25 -1.200031 5
v 2.25 -4.959106E-05 5
v -1.33003 -4.959106E-05 1.000359
v -1.250046 -1.200031 -4.959106E-05
v -1.250046 -4.959106E-05 -4.959106E-05
v -1.33003 -1.200031 1.000359
v -1.570092 -4.959106E-05 2.000103
v -1.570092 -1.200031 2.000103
v -1.930186 -4.959106E-05 3.000511
v -1.930186 -1.200031 3.000511
v -2.170027 -4.959106E-05 4.000256
v -2.170027 -1.200031 4.000256
v -2.250011 -4.959106E-05 5
v -2.250011 -1.200031 5
v 1.330018 -4.959106E-05 1.000359
v 0.8500038 -4.959106E-05 -4.959106E-05
v 1.250034 -4.959106E-05 -4.959106E-05
v 0.9300984 -4.959106E-05 1.000359
v 1.570081 -4.959106E-05 2.000103
v 1.17005 -4.959106E-05 2.000103
v 1.930175 -4.959106E-05 3.000511
v 1.530144 -4.959106E-05 3.000511
v 2.170016 -4.959106E-05 4.000256
v 1.769986 -4.959106E-05 4.000256
v 2.25 -4.959106E-05 5
v 1.84997 -4.959106E-05 5
v -0.9301097 -4.959106E-05 1.000359
v -1.250046 -4.959106E-05 -4.959106E-05
v -0.8500152 -4.959106E-05 -4.959106E-05
v -1.33003 -4.959106E-05 1.000359
v -1.170062 -4.959106E-05 2.000103
v -1.570092 -4.959106E-05 2.000103
v -1.530156 -4.959106E-05 3.000511
v -1.930186 -4.959106E-05 3.000511
v -1.769997 -4.959106E-05 4.000256
v -2.170027 -4.959106E-05 4.000256
v -1.849981 -4.959106E-05 5
v -2.250011 -4.959106E-05 5
v 0.9300984 -4.959106E-05 1.000359
v -0.8500152 -4.959106E-05 -4.959106E-05
v 0.8500038 -4.959106E-05 -4.959106E-05
v -0.9301097 -4.959106E-05 1.000359
v 1.17005 -4.959106E-05 2.000103
v -1.170062 -4.959106E-05 2.000103
v 1.530144 -4.959106E-05 3.000511
v -1.530156 -4.959106E-05 3.000511
v 1.769986 -4.959106E-05 4.000256
v -1.769997 -4.959106E-05 4.000256
v 1.84997 -4.959106E-05 5
v -1.849981 -4.959106E-05 5
v -1.33003 -1.200031 1.000359
v 1.250034 -1.200031 -4.959106E-05
v -1.250046 -1.200031 -4.959106E-05
v 1.330018 -1.200031 1.000359
v -1.570092 -1.200031 2.000103
v 1.570081 -1.200031 2.000103
v -1.930186 -1.200031 3.000511
v 1.930175 -1.200031 3.000511
v -2.170027 -1.200031 4.000256
v 2.170016 -1.200031 4.000256
v -2.250011 -1.200031 5
v 2.25 -1.200031 5
vt 0.004989013 4.125227
vt 0.9948279 3.29968
vt 0.004989013 3.29968
vt 0.9948279 4.125227
vt 0.004989013 4.950093
vt 0.9948279 4.950093
vt 0.004989013 5.77564
vt 0.9948279 5.77564
vt 0.004989013 6.600506
vt 0.9948279 6.600506
vt 0.004989013 7.42469
vt 0.9948279 7.42469
vt 0.9948279 4.125227
vt 0.004989013 3.29968
vt 0.9948279 3.29968
vt 0.004989013 4.125227
vt 0.9948279 4.950093
vt 0.004989013 4.950093
vt 0.9948279 5.77564
vt 0.004989013 5.77564
vt 0.9948279 6.600506
vt 0.004989013 6.600506
vt 0.9948279 7.42469
vt 0.004989013 7.42469
vt 0.004989013 12.37593
vt 0.9948279 9.899969
vt 0.004989013 9.899969
vt 0.9948279 12.37593
vt 0.004989013 14.85053
vt 0.9948279 14.85053
vt 0.004989013 17.32649
vt 0.9948279 17.32649
vt 0.004989013 19.8004
vt 0.9948279 19.8004
vt 0.004989013 22.275
vt 0.9948279 22.275
vt 0.9948279 12.37593
vt 0.004989013 9.899969
vt 0.9948279 9.899969
vt 0.004989013 12.37593
vt 0.9948279 14.85053
vt 0.004989013 14.85053
vt 0.9948279 17.32649
vt 0.004989013 17.32649
vt 0.9948279 19.8004
vt 0.004989013 19.8004
vt 0.9948279 22.275
vt 0.004989013 22.275
vt 0.2674463 1.249786
vt 0.7126011 1.000282
vt 0.2872158 1.000282
vt 0.7323706 1.249786
vt 0.2074561 1.499973
vt 0.7923608 1.499973
vt 0.1174707 1.75016
vt 0.8823462 1.75016
vt 0.05748047 2.000346
vt 0.9423364 2.000346
vt 0.03771096 2.249851
vt 0.9627876 2.249851
vt 0.1672353 1.249786
vt 0.8128121 1.000282
vt 0.1876866 1.000282
vt 0.8325816 1.249786
vt 0.1072451 1.499973
vt 0.8925718 1.499973
vt 0.01725975 1.75016
vt 0.9825572 1.75016
vt -0.04273049 2.000346
vt 1.042547 2.000346
vt -0.0625 2.249851
vt 1.062317 2.249851
vn 0.9999924 0.003921509 0
vn 0.9999924 0.003921509 0
vn 0.9999924 0.003921509 0
vn 0.9999924 0.003921509 0
vn 0.9999924 0.003921509 0
vn 0.9999924 0.003921509 0
vn 0.9999924 0.003921509 0
vn 0.9999924 0.003921509 0
vn 0.9999924 0.003921509 0
vn 0.9999924 0.003921509 0
vn 0.9999924 0.003921509 0
vn 0.9999924 0.003921509 0
vn -0.9999923 0.003921509 -0.0003449296
vn -0.9999923 0.003921509 -0.0003449296
vn -0.9999923 0.003921509 -0.0003449296
vn -0.9999923 0.003921509 -0.0003449296
vn -0.9999923 0.003921509 -0.0003449296
vn -0.9999923 0.003921509 -0.0003449296
vn -0.9999923 0.003921509 -0.0003449296
vn -0.9999923 0.003921509 -0.0003449296
vn -0.9999923 0.003921509 -0.0003449296
vn -0.9999923 0.003921509 -0.0003449296
vn -0.9999923 0.003921509 -0.0003449296
vn -0.9999923 0.003921509 -0.0003449296
vn -0.003921509 0.9999923 -0.000345267
vn -0.003921509 0.9999923 -0.000345267
vn -0.003921509 0.9999923 -0.000345267
vn -0.003921509 0.9999923 -0.000345267
vn -0.003921509 0.9999923 -0.000345267
vn -0.003921509 0.9999923 -0.000345267
vn -0.003921509 0.9999923 -0.000345267
vn -0.003921509 0.9999923 -0.000345267
vn -0.003921509 0.9999923 -0.000345267
vn -0.003921509 0.9999923 -0.000345267
vn -0.003921509 0.9999923 -0.000345267
vn -0.003921509 0.9999923 -0.000345267
vn -0.003921509 0.9999923 -0.000345267
vn -0.003921509 0.9999923 -0.000345267
vn -0.003921509 0.9999923 -0.000345267
vn -0.003921509 0.9999923 -0.000345267
vn -0.003921509 0.9999923 -0.000345267
vn -0.003921509 0.9999923 -0.000345267
vn -0.003921509 0.9999923 -0.000345267
vn -0.003921509 0.9999923 -0.000345267
vn -0.003921509 0.9999923 -0.000345267
vn -0.003921509 0.9999923 -0.000345267
vn -0.003921509 0.9999923 -0.000345267
vn -0.003921509 0.9999923 -0.000345267
vn -0.003921509 0.9999923 -0.000345267
vn -0.003921509 0.9999923 -0.000345267
vn -0.003921509 0.9999923 -0.000345267
vn -0.003921509 0.9999923 -0.000345267
vn -0.003921509 0.9999923 -0.000345267
vn -0.003921509 0.9999923 -0.000345267
vn -0.003921509 0.9999923 -0.000345267
vn -0.003921509 0.9999923 -0.000345267
vn -0.003921509 0.9999923 -0.000345267
vn -0.003921509 0.9999923 -0.000345267
vn -0.003921509 0.9999923 -0.000345267
vn -0.003921509 0.9999923 -0.000345267
vn -0.003921509 -0.9999924 0
vn -0.003921509 -0.9999924 0
vn -0.003921509 -0.9999924 0
vn -0.003921509 -0.9999924 0
vn -0.003921509 -0.9999924 0
vn -0.003921509 -0.9999924 0
vn -0.003921509 -0.9999924 0
vn -0.003921509 -0.9999924 0
vn -0.003921509 -0.9999924 0
vn -0.003921509 -0.9999924 0
vn -0.003921509 -0.9999924 0
vn -0.003921509 -0.9999924 0
g mesh_46_Terrain -31060_0
f 3/3/3 2/2/2 1/1/1
f 2/2/2 4/4/4 1/1/1
f 1/1/1 4/4/4 5/5/5
f 4/4/4 6/6/6 5/5/5
f 5/5/5 6/6/6 7/7/7
f 6/6/6 8/8/8 7/7/7
f 7/7/7 8/8/8 9/9/9
f 8/8/8 10/10/10 9/9/9
f 9/9/9 10/10/10 11/11/11
f 10/10/10 12/12/12 11/11/11
f 15/15/15 14/14/14 13/13/13
f 14/14/14 16/16/16 13/13/13
f 13/13/13 16/16/16 17/17/17
f 16/16/16 18/18/18 17/17/17
f 17/17/17 18/18/18 19/19/19
f 18/18/18 20/20/20 19/19/19
f 19/19/19 20/20/20 21/21/21
f 20/20/20 22/22/22 21/21/21
f 21/21/21 22/22/22 23/23/23
f 22/22/22 24/24/24 23/23/23
g mesh_46_Terrain -31060_1
f 27/27/27 26/26/26 25/25/25
f 26/26/26 28/28/28 25/25/25
f 25/25/25 28/28/28 29/29/29
f 28/28/28 30/30/30 29/29/29
f 29/29/29 30/30/30 31/31/31
f 30/30/30 32/32/32 31/31/31
f 31/31/31 32/32/32 33/33/33
f 32/32/32 34/34/34 33/33/33
f 33/33/33 34/34/34 35/35/35
f 34/34/34 36/36/36 35/35/35
f 39/39/39 38/38/38 37/37/37
f 38/38/38 40/40/40 37/37/37
f 37/37/37 40/40/40 41/41/41
f 40/40/40 42/42/42 41/41/41
f 41/41/41 42/42/42 43/43/43
f 42/42/42 44/44/44 43/43/43
f 43/43/43 44/44/44 45/45/45
f 44/44/44 46/46/46 45/45/45
f 45/45/45 46/46/46 47/47/47
f 46/46/46 48/48/48 47/47/47
g mesh_46_Terrain -31060_2
f 51/51/51 50/50/50 49/49/49
f 50/50/50 52/52/52 49/49/49
f 49/49/49 52/52/52 53/53/53
f 52/52/52 54/54/54 53/53/53
f 53/53/53 54/54/54 55/55/55
f 54/54/54 56/56/56 55/55/55
f 55/55/55 56/56/56 57/57/57
f 56/56/56 58/58/58 57/57/57
f 57/57/57 58/58/58 59/59/59
f 58/58/58 60/60/60 59/59/59
g mesh_46_Terrain -31060_3
f 63/63/63 62/62/62 61/61/61
f 62/62/62 64/64/64 61/61/61
f 61/61/61 64/64/64 65/65/65
f 64/64/64 66/66/66 65/65/65
f 65/65/65 66/66/66 67/67/67
f 66/66/66 68/68/68 67/67/67
f 67/67/67 68/68/68 69/69/69
f 68/68/68 70/70/70 69/69/69
f 69/69/69 70/70/70 71/71/71
f 70/70/70 72/72/72 71/71/71
