g mesh_47_Terrain -31060_collider
v -2.250011 -1.200031 5
v 2.25 -1.200031 5
v 2.170016 -1.200031 4.000256
v -2.170027 -1.200031 4.000256
v -2.250011 -4.959106E-05 5
v 2.170016 -4.959106E-05 4.000256
v 2.25 -4.959106E-05 5
v -2.170027 -4.959106E-05 4.000256
v 1.930175 -1.200031 3.000511
v -1.930186 -1.200031 3.000511
v -1.930186 -4.959106E-05 3.000511
v 1.930175 -4.959106E-05 3.000511
v -1.570092 -1.200031 2.000103
v 1.570081 -1.200031 2.000103
v -1.570092 -4.959106E-05 2.000103
v 1.570081 -4.959106E-05 2.000103
v -1.33003 -1.200031 1.000359
v 1.330018 -1.200031 1.000359
v -1.33003 -4.959106E-05 1.000359
v 1.330018 -4.959106E-05 1.000359
v -1.250046 -1.200031 -4.959106E-05
v -1.250046 -4.959106E-05 -4.959106E-05
v 1.250034 -1.200031 -4.959106E-05
v 1.250034 -4.959106E-05 -4.959106E-05
vt 0 0
vt 0 0
vt 0 0
vt 0 0
vt 0 0
vt 0 0
vt 0 0
vt 0 0
vt 0 0
vt 0 0
vt 0 0
vt 0 0
vt 0 0
vt 0 0
vt 0 0
vt 0 0
vt 0 0
vt 0 0
vt 0 0
vt 0 0
vt 0 0
vt 0 0
vt 0 0
vt 0 0
vn -0.7071068 -0.7071068 -0.0001726335
vn 0.7071068 -0.7071068 -0.0001726335
vn 0.7071068 -0.7071068 -0.0001726335
vn -0.7071068 -0.7071068 -0.0001726335
vn -0.7071068 0.7071068 -0.0001726335
vn 0.7071068 0.7071068 -0.0001726335
vn 0.7071068 0.7071068 -0.0001726335
vn -0.7071068 0.7071068 -0.0001726335
vn 0.7071068 -0.7071068 -0.0001726335
vn -0.7071068 -0.7071068 -0.0001726335
vn -0.7071068 0.7071068 -0.0001726335
vn 0.7071068 0.7071068 -0.0001726335
vn -0.7071068 -0.7071068 -0.0001726335
vn 0.7071068 -0.7071068 -0.0001726335
vn -0.7071068 0.7071068 -0.0001726335
vn 0.7071068 0.7071068 -0.0001726335
vn -0.7071068 -0.7071068 -0.0001726335
vn 0.7071068 -0.7071068 -0.0001726335
vn -0.7071068 0.7071068 -0.0001726335
vn 0.7071068 0.7071068 -0.0001726335
vn -0.7071068 -0.7071068 -0.0001726335
vn -0.7071068 0.7071068 -0.0001726335
vn 0.7071068 -0.7071068 -0.0001726335
vn 0.7071068 0.7071068 -0.0001726335
g mesh_47_Terrain -31060_collider_0
f 3/3/3 2/2/2 1/1/1
f 4/4/4 3/3/3 1/1/1
f 4/4/4 1/1/1 5/5/5
f 3/3/3 6/6/6 2/2/2
f 6/6/6 7/7/7 2/2/2
f 8/8/8 5/5/5 7/7/7
f 8/8/8 4/4/4 5/5/5
f 6/6/6 8/8/8 7/7/7
f 9/9/9 3/3/3 4/4/4
f 10/10/10 4/4/4 8/8/8
f 10/10/10 9/9/9 4/4/4
f 11/11/11 8/8/8 6/6/6
f 11/11/11 10/10/10 8/8/8
f 12/12/12 6/6/6 3/3/3
f 9/9/9 12/12/12 3/3/3
f 12/12/12 11/11/11 6/6/6
f 13/13/13 10/10/10 11/11/11
f 14/14/14 9/9/9 10/10/10
f 13/13/13 14/14/14 10/10/10
f 15/15/15 11/11/11 12/12/12
f 15/15/15 13/13/13 11/11/11
f 16/16/16 12/12/12 9/9/9
f 14/14/14 16/16/16 9/9/9
f 16/16/16 15/15/15 12/12/12
f 17/17/17 13/13/13 15/15/15
f 18/18/18 14/14/14 13/13/13
f 17/17/17 18/18/18 13/13/13
f 19/19/19 15/15/15 16/16/16
f 19/19/19 17/17/17 15/15/15
f 20/20/20 16/16/16 14/14/14
f 18/18/18 20/20/20 14/14/14
f 20/20/20 19/19/19 16/16/16
f 21/21/21 17/17/17 19/19/19
f 22/22/22 21/21/21 19/19/19
f 22/22/22 19/19/19 20/20/20
f 21/21/21 23/23/23 17/17/17
f 23/23/23 18/18/18 17/17/17
f 24/24/24 22/22/22 20/20/20
f 24/24/24 20/20/20 18/18/18
f 23/23/23 24/24/24 18/18/18
