g mesh_32_Pipe -619080
v 8.583069E-05 -0.125 13.75
v 0.08837263 -0.08837263 -8.583069E-05
v 8.583069E-05 -0.125 -8.583069E-05
v 0.08837263 -0.08837263 13.75
v 0.125 -8.583069E-05 -8.583069E-05
v 0.125 -8.583069E-05 13.75
v 0.08837263 0.08841269 -8.583069E-05
v 0.08837263 0.08841269 13.75
v 8.583069E-05 0.1250401 -8.583069E-05
v 8.583069E-05 0.1250401 13.75
v -0.08841269 0.08841269 -8.583069E-05
v -0.08841269 0.08841269 13.75
v -0.1250401 -8.583069E-05 -8.583069E-05
v -0.1250401 -8.583069E-05 13.75
v -0.08841269 -0.08837263 -8.583069E-05
v -0.08841269 -0.08837263 13.75
v 8.583069E-05 -0.125 -8.583069E-05
v 8.583069E-05 -0.125 13.75
vt 0.1211434 14.41707
vt 0.2162576 0.8043951
vt 0.1211434 0.8043951
vt 0.2162576 14.41707
vt 0.3104993 0.8043951
vt 0.3104993 14.41707
vt 0.4056135 0.8043951
vt 0.4056135 14.41707
vt 0.4998551 0.8043951
vt 0.4998551 14.41707
vt 0.5949693 0.8043951
vt 0.5949693 14.41707
vt 0.6892109 0.8043951
vt 0.6892109 14.41707
vt 0.7843251 0.8043951
vt 0.7843251 14.41707
vt 0.8785667 0.8043951
vt 0.8785667 14.41707
vn 0.003921568 -0.9999924 0
vn 0.7071068 -0.7071068 0
vn 0.003921568 -0.9999924 0
vn 0.7071068 -0.7071068 0
vn 0.9999924 0.003921509 0
vn 0.9999924 0.003921509 0
vn 0.7071068 0.7071068 0
vn 0.7071068 0.7071068 0
vn -0.003921509 0.9999923 -0.000345267
vn -0.003921509 0.9999923 -0.000345267
vn -0.7071068 0.7071068 0
vn -0.7071068 0.7071068 0
vn -0.9999923 -0.003921568 -0.0003442513
vn -0.9999923 -0.003921568 -0.0003442513
vn -0.7071068 -0.7071068 0
vn -0.7071068 -0.7071068 0
vn 0.003921568 -0.9999924 0
vn 0.003921568 -0.9999924 0
g mesh_32_Pipe -619080_0
f 3/3/3 2/2/2 1/1/1
f 2/2/2 4/4/4 1/1/1
f 2/2/2 5/5/5 4/4/4
f 5/5/5 6/6/6 4/4/4
f 5/5/5 7/7/7 6/6/6
f 7/7/7 8/8/8 6/6/6
f 7/7/7 9/9/9 8/8/8
f 9/9/9 10/10/10 8/8/8
f 9/9/9 11/11/11 10/10/10
f 11/11/11 12/12/12 10/10/10
f 11/11/11 13/13/13 12/12/12
f 13/13/13 14/14/14 12/12/12
f 13/13/13 15/15/15 14/14/14
f 15/15/15 16/16/16 14/14/14
f 15/15/15 17/17/17 16/16/16
f 17/17/17 18/18/18 16/16/16
